<svg width="24" height="24" viewBox="0 0 24 24" fill="none" xmlns="http://www.w3.org/2000/svg">
<path d="M12 2.49469C14.1178 2.49471 16.149 3.33604 17.6465 4.83356C19.1372 6.32438 19.9745 8.34635 19.9746 10.4547C19.9746 12.5631 19.1374 14.5858 17.6465 16.0767H17.6455L12.3359 21.4068L12.335 21.4078C12.2885 21.4546 12.2328 21.4918 12.1719 21.5172C12.111 21.5425 12.0454 21.5562 11.9795 21.5562C11.9138 21.5562 11.8488 21.5424 11.7881 21.5172C11.7272 21.4918 11.6715 21.4546 11.625 21.4078L11.624 21.4068L6.35352 16.1265C4.856 14.629 4.01467 12.5978 4.01465 10.48C4.01465 8.36221 4.85598 6.33109 6.35352 4.83356C7.85105 3.33603 9.88217 2.49469 12 2.49469ZM12 3.47418C10.6237 3.47418 9.27822 3.88254 8.13379 4.64703C6.98947 5.4115 6.09726 6.4978 5.57031 7.7691C5.04335 9.04048 4.90484 10.4397 5.17285 11.7896C5.44078 13.139 6.10308 14.3787 7.0752 15.3521V15.3531L11.6455 19.9429L12 20.2984L12.3545 19.9429L16.9238 15.3531C17.8964 14.3795 18.5591 13.1394 18.8271 11.7896C19.0952 10.4397 18.9566 9.04047 18.4297 7.7691C17.9028 6.49782 17.0105 5.41151 15.8662 4.64703C14.7218 3.88255 13.3763 3.4742 12 3.47418ZM12.0566 6.66559C12.5575 6.66975 13.0528 6.7731 13.5137 6.9693C13.9745 7.1655 14.392 7.45101 14.7422 7.80914L14.748 7.81598C15.1037 8.16736 15.3863 8.58631 15.5771 9.0484C15.7678 9.50994 15.8641 10.0051 15.8604 10.5045C15.8525 11.2548 15.623 11.9864 15.2012 12.607C14.7793 13.2275 14.1831 13.7095 13.4883 13.9927C12.7934 14.276 12.0304 14.3485 11.2949 14.1998C10.5594 14.051 9.8837 13.6879 9.35352 13.1568H9.35449C8.64064 12.4408 8.23926 11.4706 8.23926 10.4595C8.23937 9.4486 8.63977 8.47821 9.35352 7.76227C9.70895 7.41104 10.1308 7.13409 10.5938 6.94586C11.0579 6.7572 11.5556 6.66148 12.0566 6.66559ZM12.5811 7.67926C11.9378 7.55153 11.2703 7.65146 10.6924 7.96149C10.1144 8.27155 9.66148 8.77279 9.41211 9.37946C9.16296 9.9859 9.13249 10.66 9.3252 11.2867C9.51805 11.9136 9.92253 12.4544 10.4697 12.816C11.017 13.1776 11.6729 13.3375 12.3252 13.2691C12.9774 13.2007 13.5856 12.9082 14.0459 12.441L14.8838 11.5904H14.5986C14.7592 11.2424 14.8501 10.8628 14.8594 10.4722H14.8604V10.4615C14.8618 9.80568 14.6352 9.16907 14.2197 8.66168C13.8041 8.15426 13.2244 7.80705 12.5811 7.67926Z" stroke="#1B3040"/>
</svg>
