<svg width="24" height="24" viewBox="0 0 24 24" fill="none" xmlns="http://www.w3.org/2000/svg">
<path d="M21.1601 16.13L19.1601 14.98L20.0501 14.74C20.1808 14.7095 20.3041 14.6531 20.4125 14.574C20.5209 14.4949 20.6123 14.3948 20.6812 14.2797C20.7502 14.1645 20.7952 14.0367 20.8137 13.9037C20.8322 13.7708 20.8237 13.6355 20.7888 13.5059C20.7539 13.3763 20.6932 13.2551 20.6105 13.1495C20.5277 13.0438 20.4245 12.9559 20.3071 12.8909C20.1896 12.826 20.0603 12.7854 19.9268 12.7715C19.7933 12.7576 19.6584 12.7707 19.5301 12.81L16.7101 13.57L14.0001 12L16.7101 10.43L19.5301 11.19H19.7901C20.0553 11.2245 20.3234 11.1522 20.5353 10.989C20.7472 10.8259 20.8856 10.5852 20.9201 10.32C20.9546 10.0548 20.8823 9.78673 20.7191 9.57482C20.556 9.3629 20.3153 9.22448 20.0501 9.19L19.1601 9L21.1601 7.85C21.2744 7.78434 21.3746 7.69682 21.455 7.59243C21.5354 7.48805 21.5945 7.36885 21.6289 7.24163C21.6632 7.11441 21.6722 6.98168 21.6552 6.85099C21.6383 6.72031 21.5958 6.59425 21.5301 6.48C21.4645 6.36575 21.3769 6.26555 21.2725 6.18513C21.1682 6.1047 21.049 6.04562 20.9217 6.01126C20.7945 5.97691 20.6618 5.96794 20.5311 5.98488C20.4004 6.00182 20.2744 6.04434 20.1601 6.11L18.0001 7.37L18.3001 6.26C18.3394 6.13169 18.3526 5.99677 18.3386 5.86328C18.3247 5.7298 18.2841 5.60048 18.2192 5.48303C18.1542 5.36558 18.0663 5.2624 17.9607 5.17965C17.855 5.09689 17.7338 5.03625 17.6042 5.00133C17.4746 4.96642 17.3393 4.95795 17.2064 4.97642C17.0735 4.9949 16.9456 5.03994 16.8304 5.10886C16.7153 5.17779 16.6152 5.26919 16.5361 5.37762C16.457 5.48605 16.4006 5.60929 16.3701 5.74L15.5501 8.74L13.0001 10.27V7.14L15.0701 5.07C15.2564 4.88264 15.3609 4.62919 15.3609 4.365C15.3609 4.10081 15.2564 3.84736 15.0701 3.66C14.9772 3.56627 14.8665 3.49188 14.7447 3.44111C14.6228 3.39034 14.4921 3.3642 14.3601 3.3642C14.2281 3.3642 14.0974 3.39034 13.9755 3.44111C13.8537 3.49188 13.7431 3.56627 13.6501 3.66L13.0001 4.31V2C13.0001 1.73478 12.8948 1.48043 12.7072 1.29289C12.5197 1.10536 12.2653 1 12.0001 1C11.7349 1 11.4805 1.10536 11.293 1.29289C11.1055 1.48043 11.0001 1.73478 11.0001 2V4.47L10.1901 3.66C10.0972 3.56627 9.98655 3.49188 9.86469 3.44111C9.74283 3.39034 9.61213 3.3642 9.48011 3.3642C9.3481 3.3642 9.2174 3.39034 9.09554 3.44111C8.97368 3.49188 8.86308 3.56627 8.77011 3.66C8.58386 3.84736 8.47932 4.10081 8.47932 4.365C8.47932 4.62919 8.58386 4.88264 8.77011 5.07L11.0001 7.3V10.3L8.43011 8.78L7.61011 5.78C7.57966 5.64929 7.52321 5.52605 7.44413 5.41762C7.36504 5.30919 7.26494 5.21779 7.14978 5.14886C7.03463 5.07994 6.90678 5.0349 6.77385 5.01642C6.64092 4.99795 6.50563 5.00642 6.37604 5.04133C6.24646 5.07625 6.12522 5.13689 6.01957 5.21965C5.91391 5.3024 5.826 5.40558 5.76106 5.52303C5.69612 5.64048 5.65549 5.7698 5.64158 5.90328C5.62767 6.03677 5.64078 6.17169 5.68011 6.3L6.00011 7.37L3.84011 6.13C3.72586 6.06434 3.5998 6.02182 3.46912 6.00488C3.33844 5.98794 3.2057 5.99691 3.07848 6.03126C2.95127 6.06562 2.83206 6.1247 2.72768 6.20513C2.6233 6.28555 2.53577 6.38575 2.47011 6.5C2.40445 6.61425 2.36194 6.74031 2.345 6.871C2.32806 7.00168 2.33702 7.13441 2.37138 7.26163C2.44077 7.51855 2.60938 7.73739 2.84011 7.87L4.84011 9L4.00011 9.26C3.7349 9.29448 3.49424 9.4329 3.33108 9.64482C3.16793 9.85673 3.09564 10.1248 3.13011 10.39C3.16459 10.6552 3.30301 10.8959 3.51493 11.059C3.72685 11.2222 3.9949 11.2945 4.26011 11.26H4.52011L7.34011 10.5L10.0001 12L7.29011 13.57L4.47011 12.81C4.3378 12.7609 4.19658 12.7403 4.05574 12.7497C3.9149 12.759 3.77764 12.7981 3.65299 12.8643C3.52833 12.9305 3.4191 13.0223 3.33248 13.1338C3.24586 13.2452 3.18381 13.3737 3.15041 13.5108C3.11701 13.648 3.11303 13.7906 3.13871 13.9294C3.1644 14.0682 3.21917 14.2 3.29943 14.3161C3.37969 14.4322 3.48363 14.53 3.60439 14.6031C3.72516 14.6761 3.86002 14.7228 4.00011 14.74L4.89011 14.98L2.89011 16.13C2.65938 16.2626 2.49077 16.4814 2.42138 16.7384C2.35199 16.9953 2.38751 17.2693 2.52011 17.5C2.65272 17.7307 2.87156 17.8993 3.12848 17.9687C3.38541 18.0381 3.65938 18.0026 3.89011 17.87L6.00011 16.63L5.70011 17.74C5.66047 17.868 5.64696 18.0027 5.66039 18.136C5.67381 18.2693 5.7139 18.3986 5.77826 18.5161C5.84263 18.6337 5.92995 18.7371 6.03506 18.8202C6.14017 18.9033 6.26091 18.9645 6.39011 19C6.4765 19.0098 6.56373 19.0098 6.65011 19C6.87588 19.0077 7.09761 18.9388 7.27919 18.8044C7.46077 18.6701 7.59151 18.4782 7.65011 18.26L8.47011 15.26L11.0001 13.73V16.86L8.93011 18.93C8.74386 19.1174 8.63932 19.3708 8.63932 19.635C8.63932 19.8992 8.74386 20.1526 8.93011 20.34C9.02273 20.4345 9.13317 20.5097 9.25505 20.5612C9.37692 20.6127 9.50781 20.6395 9.64011 20.64C9.77242 20.6395 9.9033 20.6127 10.0252 20.5612C10.1471 20.5097 10.2575 20.4345 10.3501 20.34L11.0001 19.69V22C11.0001 22.2652 11.1055 22.5196 11.293 22.7071C11.4805 22.8946 11.7349 23 12.0001 23C12.2653 23 12.5197 22.8946 12.7072 22.7071C12.8948 22.5196 13.0001 22.2652 13.0001 22V19.53L13.8101 20.34C13.9031 20.4337 14.0137 20.5081 14.1355 20.5589C14.2574 20.6097 14.3881 20.6358 14.5201 20.6358C14.6521 20.6358 14.7828 20.6097 14.9047 20.5589C15.0265 20.5081 15.1372 20.4337 15.2301 20.34C15.4164 20.1526 15.5209 19.8992 15.5209 19.635C15.5209 19.3708 15.4164 19.1174 15.2301 18.93L13.0001 16.7V13.7L15.5701 15.19L16.3901 18.19C16.4487 18.4082 16.5795 18.6001 16.761 18.7344C16.9426 18.8688 17.1644 18.9377 17.3901 18.93C17.4765 18.9398 17.5637 18.9398 17.6501 18.93C17.7778 18.8964 17.8975 18.8378 18.0025 18.7576C18.1074 18.6774 18.1954 18.5773 18.2614 18.4629C18.3274 18.3486 18.3701 18.2223 18.3871 18.0913C18.404 17.9604 18.3948 17.8274 18.3601 17.7L18.0001 16.63L20.1401 17.87C20.2544 17.9357 20.3804 17.9782 20.5111 17.9951C20.6418 18.0121 20.7745 18.0031 20.9017 17.9687C21.029 17.9344 21.1482 17.8753 21.2525 17.7949C21.3569 17.7144 21.4445 17.6143 21.5101 17.5C21.5758 17.3857 21.6183 17.2597 21.6352 17.129C21.6522 16.9983 21.6432 16.8656 21.6089 16.7384C21.5745 16.6112 21.5154 16.4919 21.435 16.3876C21.3546 16.2832 21.2544 16.1957 21.1401 16.13H21.1601Z" fill="white"/>
</svg>
