<svg width="24" height="25" viewBox="0 0 24 25" fill="none" xmlns="http://www.w3.org/2000/svg">
<path d="M20.4701 2.50014H3.53006C3.33964 2.4975 3.15056 2.53239 2.97362 2.60282C2.79669 2.67326 2.63536 2.77786 2.49886 2.91065C2.36235 3.04344 2.25334 3.20182 2.17805 3.37675C2.10276 3.55167 2.06267 3.73972 2.06006 3.93014V21.0701C2.06267 21.2606 2.10276 21.4486 2.17805 21.6235C2.25334 21.7985 2.36235 21.9568 2.49886 22.0896C2.63536 22.2224 2.79669 22.327 2.97362 22.3975C3.15056 22.4679 3.33964 22.5028 3.53006 22.5001H20.4701C20.6605 22.5028 20.8496 22.4679 21.0265 22.3975C21.2034 22.327 21.3648 22.2224 21.5013 22.0896C21.6378 21.9568 21.7468 21.7985 21.8221 21.6235C21.8974 21.4486 21.9375 21.2606 21.9401 21.0701V3.93014C21.9375 3.73972 21.8974 3.55167 21.8221 3.37675C21.7468 3.20182 21.6378 3.04344 21.5013 2.91065C21.3648 2.77786 21.2034 2.67326 21.0265 2.60282C20.8496 2.53239 20.6605 2.4975 20.4701 2.50014ZM8.09006 19.2401H5.09006V10.2401H8.09006V19.2401ZM6.59006 8.98014C6.17632 8.98014 5.77953 8.81578 5.48697 8.52323C5.19442 8.23067 5.03006 7.83388 5.03006 7.42014C5.03006 7.0064 5.19442 6.60961 5.48697 6.31705C5.77953 6.0245 6.17632 5.86014 6.59006 5.86014C6.80975 5.83522 7.03224 5.85699 7.24293 5.92402C7.45363 5.99105 7.6478 6.10183 7.81272 6.2491C7.97763 6.39637 8.10958 6.57682 8.19993 6.77862C8.29028 6.98043 8.33698 7.19904 8.33698 7.42014C8.33698 7.64124 8.29028 7.85985 8.19993 8.06166C8.10958 8.26346 7.97763 8.44391 7.81272 8.59118C7.6478 8.73845 7.45363 8.84923 7.24293 8.91626C7.03224 8.98329 6.80975 9.00505 6.59006 8.98014ZM18.9101 19.2401H15.9101V14.4101C15.9101 13.2001 15.4801 12.4101 14.3901 12.4101C14.0527 12.4126 13.7242 12.5184 13.4489 12.7133C13.1735 12.9082 12.9645 13.1828 12.8501 13.5001C12.7718 13.7352 12.7379 13.9827 12.7501 14.2301V19.2301H9.75006C9.75006 19.2301 9.75006 11.0501 9.75006 10.2301H12.7501V11.5001C13.0226 11.0272 13.419 10.6377 13.8965 10.3733C14.374 10.109 14.9146 9.97999 15.4601 10.0001C17.4601 10.0001 18.9101 11.2901 18.9101 14.0601V19.2401Z" fill="#1B3040"/>
</svg>
